<svg width="80" height="80" viewBox="0 0 80 80" fill="none" xmlns="http://www.w3.org/2000/svg">
<path d="M33.7063 37.0753L36.5903 39.9431L33.7063 42.8103H13.4066V52.3637L1.02688 39.9431L13.4066 27.7306V37.0753H33.7066H33.7063ZM42.6294 12.6791H67.2947V37.3447H42.6294V12.6791Z" fill="#932279"/>
<path d="M42.8984 33.7063L40.0313 36.5903L37.1641 33.7063V13.4066H27.61L40.0313 1.02689L52.2428 13.4066H42.8984V33.7066V33.7063ZM42.6297 42.6294H67.2947V67.295H42.6294V42.6294H42.6297Z" fill="#EFA724"/>
<path d="M46.2678 42.8984L43.3834 40.0312L46.2678 37.1641H66.5672V27.61L78.9475 40.0312L66.5672 52.2428V42.8984H46.2678V42.8984ZM12.6791 42.6297H37.3444V67.2953H12.6791V42.6297V42.6297Z" fill="#262577"/>
<path d="M37.0753 46.2678L39.9425 43.3835L42.8103 46.2678V66.5678H52.3637L39.9425 78.9475L27.7312 66.5678H37.0753V46.2678V46.2678ZM12.6791 12.6791H37.3444V37.3447H12.6791V12.6791V12.6791Z" fill="#9CCD2A"/>
<path d="M11.7981 11.7981H38.2253V38.2253H11.7981V11.7981ZM13.5597 36.4638H36.4631V13.5603H13.5597V36.4638ZM41.7491 11.7981H68.1763V38.2253H41.7491V11.7981V11.7981ZM43.5106 36.4638H66.4141V13.5603H43.5106V36.4638ZM41.7491 41.7491H68.1763V68.1769H41.7491V41.7488V41.7491ZM43.5106 66.4141H66.4141V43.5106H43.5106V66.4141ZM11.7981 41.7491H38.2253V68.1769H11.7981V41.7488V41.7491ZM13.5597 66.4141H36.4631V43.5106H13.5597V66.4141V66.4141Z" fill="white"/>
<path d="M18.8087 58.6744L0.121246 39.9869L18.8084 21.3L37.4959 39.9869L18.8091 58.6744H18.8087ZM2.61312 39.9869L18.8087 56.1825L35.0037 39.9869L18.8081 23.7919L2.61312 39.9869V39.9869ZM39.9869 37.4956L21.3 18.8087L39.9869 0.121246L58.6738 18.8087L39.9869 37.4956V37.4956ZM23.7919 18.8087L39.9869 35.0037L56.1825 18.8087L39.9869 2.61312L23.7919 18.8087ZM61.1656 58.6744L42.4788 39.9869L61.1656 21.3L79.8525 39.9869L61.1656 58.6744V58.6744ZM44.97 39.9869L61.1656 56.1825L77.3606 39.9869L61.1656 23.7919L44.97 39.9869V39.9869ZM39.9869 79.8525L21.3 61.1656L39.9869 42.4788L58.6738 61.1656L39.9869 79.8525V79.8525ZM23.7919 61.1656L39.9869 77.3606L56.1825 61.1656L39.9869 44.9706L23.7919 61.1656V61.1656Z" fill="white"/>
</svg>
