<svg width="80" height="80" viewBox="0 0 80 80" fill="none" xmlns="http://www.w3.org/2000/svg">
<path d="M80 40.0012C80 17.9094 62.0909 0 39.9994 0C17.9175 0 0.015625 17.8944 0 39.9731V70.9275C0.011875 75.9406 4.07781 79.9991 9.09406 79.9991H40.0156C62.1 79.9903 80 62.0872 80 40.0012Z" fill="#294172"/>
<path d="M51.7438 9.47095C41.3972 9.47095 32.9797 17.8881 32.9797 28.235V38.1944H23.0616C12.715 38.1944 4.29749 46.6122 4.29749 56.9588C4.29749 67.305 12.715 75.7229 23.0616 75.7229C33.4081 75.7229 41.8256 67.305 41.8256 56.9588V46.9991H51.7438C62.0903 46.9991 70.5082 38.5816 70.5082 28.235C70.5082 17.8881 62.0903 9.47095 51.7438 9.47095V9.47095ZM33.0491 56.9588C33.0491 62.4657 28.5687 66.946 23.0616 66.946C17.5544 66.946 13.0741 62.4657 13.0741 56.9588C13.0741 51.4516 17.5544 46.9713 23.0616 46.9713H32.9797V46.9991H33.0491V56.9588V56.9588ZM51.7438 38.2225H41.8256V38.1944H41.7566V28.235C41.7566 22.7278 46.2369 18.2475 51.7438 18.2475C57.2506 18.2475 61.7313 22.7278 61.7313 28.235C61.7313 33.7422 57.2506 38.2225 51.7438 38.2225V38.2225Z" fill="#3C6EB4"/>
<path d="M55.8909 10.04C54.4347 9.65937 53.3166 9.48187 51.7437 9.48187C41.3759 9.48187 32.9703 17.8878 32.9703 28.255V38.2056H25.1078C22.6563 38.2056 20.675 40.1322 20.6766 42.5794C20.6766 45.0112 22.6359 46.9459 25.0616 46.9459L31.5713 46.9472C32.3441 46.9472 32.9709 47.5722 32.9709 48.3437V56.954C32.9613 62.42 28.5275 66.8475 23.0616 66.8475C21.21 66.8475 20.7516 66.605 19.4875 66.605C16.8322 66.605 15.0556 68.385 15.0556 70.8325C15.0563 72.8572 16.7913 74.5978 18.9144 75.1534C20.3706 75.534 21.4888 75.7118 23.0616 75.7118C33.4294 75.7118 41.835 67.3059 41.835 56.9384V46.9881H49.6975C52.1491 46.9881 54.1303 45.0615 54.1287 42.6144C54.1287 40.1822 52.1694 38.2478 49.7437 38.2478L43.2341 38.2465C42.8632 38.2469 42.5074 38.0999 42.245 37.8379C41.9825 37.576 41.8348 37.2205 41.8344 36.8497V28.2394C41.8441 22.7734 46.2778 18.3459 51.7437 18.3459C53.5953 18.3459 54.0537 18.5887 55.3178 18.5887C57.9731 18.5887 59.7497 16.8084 59.7497 14.3612C59.7491 12.3362 58.0141 10.5956 55.8909 10.04Z" fill="white"/>
</svg>
