<svg width="80" height="80" viewBox="0 0 80 80" fill="none" xmlns="http://www.w3.org/2000/svg">
<path d="M40 79C61.5391 79 79 61.5391 79 40C79 18.4609 61.5391 1 40 1C18.4609 1 1 18.4609 1 40C1 61.5391 18.4609 79 40 79Z" fill="#DD4814"/>
<path d="M13.48 45.2142C16.3598 45.2142 18.6943 42.8797 18.6943 39.9999C18.6943 37.1202 16.3598 34.7857 13.48 34.7857C10.6003 34.7857 8.26576 37.1202 8.26576 39.9999C8.26576 42.8797 10.6003 45.2142 13.48 45.2142Z" fill="white"/>
<path d="M27.4559 58.8268C22.9041 55.7923 19.5063 51.1337 18.0959 45.6844C19.7414 44.3381 20.7885 42.3079 20.7885 40.0214C20.7885 37.7348 19.7414 35.6833 18.0959 34.3583C19.5063 28.909 22.9041 24.2504 27.4559 21.2159L31.2597 27.5841C27.349 30.3408 24.7847 34.8712 24.7847 40.0214C24.7847 45.1715 27.349 49.7233 31.2597 52.4586L27.4559 58.8268Z" fill="white"/>
<path d="M53.2493 22.2416C56.1291 22.2416 58.4636 19.9071 58.4636 17.0274C58.4636 14.1476 56.1291 11.8131 53.2493 11.8131C50.3696 11.8131 48.0351 14.1476 48.0351 17.0274C48.0351 19.9071 50.3696 22.2416 53.2493 22.2416Z" fill="white"/>
<path d="M29.9775 19.72C34.8926 17.3052 40.6197 16.6855 46.0477 18.2027C46.3896 20.297 47.629 22.2202 49.6164 23.3742C51.6038 24.5282 53.8904 24.635 55.8778 23.8657C59.8953 27.8192 62.2247 33.0761 62.5879 38.5468L55.1726 38.6537C54.7452 33.8882 52.0953 29.4005 47.629 26.8361C43.1627 24.2718 37.9485 24.2076 33.6104 26.2164L29.9775 19.72Z" fill="white"/>
<path d="M53.2493 68.1869C56.1291 68.1869 58.4636 65.8524 58.4636 62.9726C58.4636 60.0929 56.1291 57.7584 53.2493 57.7584C50.3696 57.7584 48.0351 60.0929 48.0351 62.9726C48.0351 65.8524 50.3696 68.1869 53.2493 68.1869Z" fill="white"/>
<path d="M62.5666 41.4532C62.2033 46.9238 59.874 52.1808 55.8564 56.1342C53.869 55.3863 51.5825 55.4931 49.5951 56.6258C47.6077 57.7797 46.3682 59.703 46.0263 61.7973C40.5984 63.2931 34.8712 62.6948 29.9562 60.28L33.5677 53.8049C37.9057 55.8137 43.12 55.7496 47.5863 53.1852C52.0526 50.6208 54.7025 46.1332 55.1299 41.3677L62.5666 41.4532Z" fill="white"/>
</svg>
